<svg xmlns="http://www.w3.org/2000/svg" width="85.329" height="85.328" viewBox="0 0 85.329 85.328"><defs><style>.a{fill:#224388;}</style></defs><g transform="translate(0 -0.001)"><g transform="translate(21.332 0.001)"><g transform="translate(0 0)"><path class="a" d="M166.931,45.509a5.651,5.651,0,0,0-4.266,1.965,5.613,5.613,0,0,0-8.533,0,5.575,5.575,0,0,0-7.111-1.175V41.874c.185-.051.371-.1.555-.156.141-.043.277-.094.417-.139.428-.141.85-.292,1.267-.458.112-.046.223-.092.334-.139q.721-.3,1.416-.656l.075-.038a21.3,21.3,0,0,0,5.381-3.924,1.463,1.463,0,0,0,.1-.162,21.32,21.32,0,1,0-30.431.064c.026.03.034.071.063.1.1.1.2.186.3.282.071.07.145.135.218.2q.538.506,1.106.973c.114.092.226.186.341.277q.572.448,1.17.855c.1.068.195.139.3.206.493.323,1,.627,1.515.909.119.065.245.121.365.183.4.208.808.405,1.223.589.191.084.384.162.579.24.378.154.762.294,1.151.427.186.064.371.129.56.188.206.064.414.122.623.179V63.41l-4.633-4.633a6.45,6.45,0,1,0-9.124,9.12l13.755,13.755v2.256a1.421,1.421,0,0,0,1.422,1.422h32.709a1.421,1.421,0,0,0,1.422-1.422V78.554l1.273-2.544a1.425,1.425,0,0,0,.149-.636V51.192A5.692,5.692,0,0,0,166.931,45.509ZM126.442,32.243A18.45,18.45,0,0,1,140.418,2.868a18.447,18.447,0,0,1,15.8,29.37,15.75,15.75,0,0,0-8.51-9.524,8.532,8.532,0,1,0-12.757,0A15.743,15.743,0,0,0,126.442,32.243Zm20.578-15.177a5.667,5.667,0,0,1-2.851,4.9c-.007,0-.016,0-.024.009a5.882,5.882,0,0,1-1.216.522c-.075.023-.148.051-.226.07-.154.04-.309.068-.464.1a5.712,5.712,0,0,1-.785.08c-.083,0-.165,0-.249,0a5.5,5.5,0,0,1-.785-.08c-.155-.027-.31-.054-.464-.1-.077-.02-.149-.048-.226-.07a5.96,5.96,0,0,1-1.216-.522c-.007,0-.016,0-.023-.009a5.678,5.678,0,1,1,8.529-4.9ZM135.644,34.132v4.786a18.558,18.558,0,0,1-1.738-.667c-.161-.071-.316-.149-.474-.225q-.6-.284-1.179-.609c-.182-.1-.363-.206-.54-.316-.368-.225-.727-.466-1.079-.717-.155-.111-.316-.213-.466-.329q-.687-.521-1.324-1.108c-.043-.038-.08-.081-.122-.121a12.857,12.857,0,0,1,8.9-10.089,8.421,8.421,0,0,0,7.416,0,12.853,12.853,0,0,1,8.9,10.06c-.192.181-.38.365-.579.538-.041.036-.084.07-.127.105a18.909,18.909,0,0,1-2.15,1.574c-.033.021-.065.046-.1.065-.273.169-.557.32-.84.475-.266.144-.533.284-.8.415-.232.112-.465.223-.7.326-.5.213-1,.414-1.519.583l-.1.036V34.132a5.689,5.689,0,0,0-11.379,0Zm34.131,40.907L168.5,77.583a1.426,1.426,0,0,0-.149.636v4.266H138.488V81.063a1.416,1.416,0,0,0-.417-1.005L123.9,65.886a3.606,3.606,0,0,1,5.1-5.1l7.061,7.061a1.422,1.422,0,0,0,2.428-1.005V34.132a2.844,2.844,0,1,1,5.689,0v25.6h2.844V51.2a2.844,2.844,0,1,1,5.689,0v8.533h2.844V51.2a2.844,2.844,0,1,1,5.689,0v8.533h2.844V51.2a2.844,2.844,0,0,1,5.689-.006Z" transform="translate(-120 -0.001)"/></g></g><g transform="translate(0 14.222)"><path class="a" d="M14.536,92.5a7.111,7.111,0,1,0-9.161,0A9.959,9.959,0,0,0,0,101.331V105.6a1.421,1.421,0,0,0,1.422,1.422H18.488A1.421,1.421,0,0,0,19.91,105.6v-4.266A9.959,9.959,0,0,0,14.536,92.5ZM9.955,82.843A4.266,4.266,0,1,1,5.689,87.11,4.272,4.272,0,0,1,9.955,82.843Zm7.111,21.332H2.844v-2.844a7.111,7.111,0,0,1,14.221,0Z" transform="translate(0 -79.999)"/></g><g transform="translate(65.419 12.8)"><path class="a" d="M382.536,84.5a7.111,7.111,0,1,0-9.161,0A9.959,9.959,0,0,0,368,93.331V97.6a1.421,1.421,0,0,0,1.422,1.422h17.066A1.421,1.421,0,0,0,387.91,97.6V93.331A9.959,9.959,0,0,0,382.536,84.5Zm-4.581-9.659a4.266,4.266,0,1,1-4.266,4.266A4.272,4.272,0,0,1,377.955,74.843Zm7.111,21.332H370.844V93.331a7.111,7.111,0,1,1,14.221,0Z" transform="translate(-368 -71.999)"/></g></g></svg>