<svg xmlns="http://www.w3.org/2000/svg" width="79.5" height="85.6" viewBox="0 0 79.5 85.6"><defs><style>.a{fill:#224388;}</style></defs><g transform="translate(-48.001 -46.46)"><path class="a" d="M56.117,182.38a5.613,5.613,0,0,0-5.578,4.785l-2.521,16.386a1.531,1.531,0,0,0,.019.564l3.058,13.76a1.532,1.532,0,0,0,.411.75l7.644,7.644,0,0c.019.019.038.035.058.053s.039.036.06.053l0,0,7.071,5.657v8.438A1.529,1.529,0,0,0,67.877,242H83.165a1.529,1.529,0,0,0,1.529-1.529V224.9a15.5,15.5,0,0,0-4.569-11.031l-.725-.725a15.656,15.656,0,0,0-10.8-4.567l-5.905-7.252a5.8,5.8,0,0,0-.932-.912v-12.39A5.65,5.65,0,0,0,56.117,182.38Zm10.574,28.7a1.529,1.529,0,0,0,1.239.562,12.594,12.594,0,0,1,9.307,3.666l.725.725a12.458,12.458,0,0,1,3.674,8.868v14.046H69.4V231.3a1.529,1.529,0,0,0-.573-1.194l-7.577-6.062-7.272-7.27-2.9-13.045,2.477-16.1a2.585,2.585,0,0,1,5.141.393v11.2c-.162-.014-.325-.023-.49-.023a5.776,5.776,0,0,0-5.071,8.542l5.083,9.316a1.529,1.529,0,0,0,2.684-1.464l-5.083-9.317a2.718,2.718,0,0,1,4.494-3.018Z" transform="translate(0 -109.945)"/><path class="a" d="M181.91,69.377a22.791,22.791,0,0,0-2.39-10.186,1.515,1.515,0,0,0-.125-.251,23.02,23.02,0,0,0-2.746-4.164,1.538,1.538,0,0,0-.229-.271,22.924,22.924,0,1,0,3.55,24.1,1.526,1.526,0,0,0,.1-.239,22.8,22.8,0,0,0,1.836-8.989Zm-4.665-.483a1.529,1.529,0,0,0-2.532-.6l-2.172,2.172-3.052-2.035-1.248-4.993.683-1.366,3.328,1.11a1.531,1.531,0,0,0,1.167-.083l2.874-1.437.919-.184a19.886,19.886,0,0,1,1.339,11.339ZM166.622,51.032a19.909,19.909,0,0,1,5.041,3.058h-4.1l-.945-1.891Zm-11.462-1.16,1.663,3.324-2.915.971a1.529,1.529,0,0,0-.884.767l-1.214,2.429-5.433,1.358a1.529,1.529,0,0,0-1.08,1.967l1.23,3.69-1.182,1.182-4.109-5.135A19.942,19.942,0,0,1,155.16,49.872Zm3.818,39.38a19.877,19.877,0,0,1-19.044-25.563l4.091,5.114a1.529,1.529,0,0,0,1.109.571l.084,0a1.529,1.529,0,0,0,1.081-.448l3.058-3.058a1.529,1.529,0,0,0,.369-1.565l-1.007-3.019,4.514-1.128a1.529,1.529,0,0,0,1-.8l1.246-2.491,3.986-1.329a1.529,1.529,0,0,0,.884-2.135L158.4,49.511c.193-.006.386-.009.579-.009a19.863,19.863,0,0,1,4.587.535V52.56a1.528,1.528,0,0,0,.162.684l1.529,3.058a1.529,1.529,0,0,0,1.367.845h8.011q.573.731,1.077,1.515l-.215.043a1.527,1.527,0,0,0-.384.132l-2.491,1.245-3.986-1.329a1.529,1.529,0,0,0-1.851.767l-1.529,3.058a1.527,1.527,0,0,0-.116,1.055l1.529,6.115a1.529,1.529,0,0,0,.635.9l4.587,3.058a1.529,1.529,0,0,0,1.929-.191l1.309-1.309,1.858,5.575A19.9,19.9,0,0,1,158.978,89.252Z" transform="translate(-71.227 0)"/><path class="a" d="M210.828,163.045l-4.392-1.464-4.416-2.943a1.53,1.53,0,0,0-.848-.258h-4.587a1.529,1.529,0,0,0-1.081.448l-3.058,3.058a1.529,1.529,0,0,0-.287,1.765l1.245,2.491-1.328,3.986a1.529,1.529,0,0,0,.533,1.707l6.115,4.586a1.529,1.529,0,0,0,1.7.088l7.644-4.587a1.529,1.529,0,0,0,.581-.627l3.058-6.115a1.529,1.529,0,0,0-.884-2.134Zm-4.709,6.484-6.38,3.828-4.411-3.309,1.18-3.541a1.529,1.529,0,0,0-.083-1.167l-1.036-2.072,1.831-1.831h3.491l4.2,2.8a1.536,1.536,0,0,0,.365.178l2.914.971Z" transform="translate(-116.479 -90.532)"/><path class="a" d="M276.568,213.843A15.5,15.5,0,0,0,272,224.873v15.575a1.529,1.529,0,0,0,1.529,1.529h15.288a1.529,1.529,0,0,0,1.529-1.529v-8.438l7.071-5.657,0,0c.021-.017.04-.035.06-.053s.04-.034.058-.053l0,0,7.644-7.644a1.532,1.532,0,0,0,.411-.75l3.058-13.76a1.531,1.531,0,0,0,.019-.564l-2.521-16.386a5.643,5.643,0,0,0-11.222.859v12.39a5.8,5.8,0,0,0-.931.912l-5.905,7.252a15.659,15.659,0,0,0-10.8,4.567Zm2.887,1.437a12.6,12.6,0,0,1,9.308-3.665,1.545,1.545,0,0,0,1.239-.562l6.37-7.822a2.718,2.718,0,0,1,4.494,3.018l-5.082,9.317a1.529,1.529,0,0,0,2.684,1.464l5.083-9.318a5.776,5.776,0,0,0-5.071-8.542c-.165,0-.328.009-.49.023V188a2.585,2.585,0,0,1,5.141-.393l2.477,16.1-2.9,13.045-7.271,7.27-7.578,6.062a1.529,1.529,0,0,0-.573,1.194v7.644H275.057V224.874a12.458,12.458,0,0,1,3.673-8.868Z" transform="translate(-181.191 -109.918)"/></g></svg>