<svg xmlns="http://www.w3.org/2000/svg" width="71.713" height="85.954" viewBox="0 0 71.713 85.954"><defs><style>.a{fill:#224388;}</style></defs><path class="a" d="M70.442,75.867A1.271,1.271,0,0,0,71.713,74.6v-.8A14.876,14.876,0,0,0,60.849,59.507L46.926,55.639l-3.695-3.695V46.485a17.276,17.276,0,0,0,9.406-11.731h1.7A4.668,4.668,0,0,0,59,30.092V27.718a4.649,4.649,0,0,0-1.526-3.446V2.543h5.764v12.4a4.323,4.323,0,0,0,0,8.264v3.158a1.271,1.271,0,1,0,2.542,0V23.2a4.323,4.323,0,0,0,0-8.264V2.543h1.272a1.272,1.272,0,0,0,0-2.543H4.662a1.272,1.272,0,0,0,0,2.543h9.579v2.55a1.272,1.272,0,0,0,2.543,0V2.543H54.929V17.462H16.784V11.03a1.272,1.272,0,0,0-2.543,0V24.272a4.651,4.651,0,0,0-1.526,3.447v2.373a4.668,4.668,0,0,0,4.663,4.663h1.7a17.274,17.274,0,0,0,9.406,11.731v5.459l-3.695,3.7L10.864,59.507A14.876,14.876,0,0,0,0,73.8V74.6a1.272,1.272,0,0,0,2.543,0V73.8a12.325,12.325,0,0,1,9-11.843l8.385-2.329,4.712,14.926a1.279,1.279,0,0,0,.291.494l7.959,8.363H15.428V79.427a1.272,1.272,0,0,0-2.543,0v3.984H2.543V80.518a1.272,1.272,0,0,0-2.543,0v4.164a1.271,1.271,0,0,0,1.272,1.272h69.17a1.271,1.271,0,0,0,1.272-1.272V80.518a1.272,1.272,0,0,0-2.543,0v2.893H58.829V79.427a1.272,1.272,0,0,0-2.543,0v3.984H38.822l7.959-8.363a1.275,1.275,0,0,0,.291-.494l4.712-14.926,8.385,2.33a12.324,12.324,0,0,1,9,11.842v.8A1.271,1.271,0,0,0,70.442,75.867ZM64.508,20.853a1.78,1.78,0,1,1,1.78-1.78A1.782,1.782,0,0,1,64.508,20.853ZM33.678,70.187h4.357l1.713,8.562-3.891,4.089-3.891-4.089ZM38.5,67.644H33.216l-2.15-2.481,4.791-4.791,4.79,4.791Zm3.471-4.756-4.314-4.314,4.305-4.3,2.64,2.639Zm14.487-32.8a2.121,2.121,0,0,1-2.119,2.119H53.064V25.6h1.272a2.122,2.122,0,0,1,2.119,2.119Zm-1.526-7a4.666,4.666,0,0,0-.593-.039H53.064V20.005h1.865ZM16.784,20.005h1.865v3.052H17.377a4.666,4.666,0,0,0-.593.039Zm1.865,12.207H17.377a2.122,2.122,0,0,1-2.119-2.119V27.719A2.122,2.122,0,0,1,17.377,25.6h1.272Zm2.543-1.272V20.005H50.521V30.94a14.665,14.665,0,0,1-29.329,0ZM35.857,48.148a17.165,17.165,0,0,0,4.832-.691v4.487l-4.832,4.832-4.832-4.832V47.456A17.142,17.142,0,0,0,35.857,48.148Zm-6.1,6.121,4.305,4.305-4.314,4.314-2.631-5.979Zm-7.372,4.678,2.54-.706,3.24,7.364a1.286,1.286,0,0,0,.07.137c.007.012.014.023.022.035.018.028.037.056.057.083l.033.042c.009.01.016.022.026.032l2.9,3.344L29.823,76.5l-2.845-2.989ZM44.735,73.508,41.89,76.5l-1.443-7.219,2.9-3.344c.009-.01.017-.022.026-.032l.033-.043c.02-.027.039-.054.056-.083l.022-.035a1.4,1.4,0,0,0,.07-.136l3.24-7.364,2.54.706Zm0,0"/></svg>